<svg xmlns="http://www.w3.org/2000/svg" viewBox="0 0 1280 360" font-family="-apple-system, BlinkMacSystemFont, 'Segoe UI', Roboto, Helvetica, Arial, sans-serif">
  <defs>
    <linearGradient id="bg" x1="0" y1="0" x2="1" y2="1">
      <stop offset="0" stop-color="#0a0f1e"/>
      <stop offset="1" stop-color="#121d33"/>
    </linearGradient>
    <linearGradient id="accent" x1="0" y1="0" x2="1" y2="0">
      <stop offset="0" stop-color="#6366f1"/>
      <stop offset="0.5" stop-color="#0ea5e9"/>
      <stop offset="1" stop-color="#14b8a6"/>
    </linearGradient>
    <radialGradient id="glow" cx="0.82" cy="0.18" r="0.6">
      <stop offset="0" stop-color="#1e3a5f" stop-opacity="0.55"/>
      <stop offset="1" stop-color="#1e3a5f" stop-opacity="0"/>
    </radialGradient>
    <clipPath id="card"><rect x="0" y="0" width="1280" height="360" rx="18"/></clipPath>
  </defs>

  <g clip-path="url(#card)">
    <rect x="0" y="0" width="1280" height="360" fill="url(#bg)"/>
    <rect x="0" y="0" width="1280" height="360" fill="url(#glow)"/>
    <rect x="0" y="0" width="1280" height="6" fill="url(#accent)"/>

    <!-- ===== left: identity ===== -->
    <text x="64" y="138" font-size="56" font-weight="800" fill="#f8fafc" letter-spacing="-1">BlindSpotMoat</text>
    <text x="556" y="138" font-size="26" font-weight="600" fill="#818cf8">/ NULLTRACK</text>

    <text x="66" y="180" font-size="20" fill="#94a3b8">A falsifiable analysis engine that refuses to assert what it cannot prove.</text>
    <text x="66" y="210" font-size="14" fill="#64748b">delete the scarce resource (visibility) · is illegibility a finite arbitrage — or a phantom?</text>

    <!-- verdict chip -->
    <rect x="64" y="262" width="290" height="46" rx="23" fill="#0f172a" stroke="#334155" stroke-width="1.5"/>
    <circle cx="92" cy="285" r="6" fill="#5eead4"/>
    <text x="110" y="290" font-size="16" fill="#94a3b8">verdict</text>
    <text x="178" y="290" font-size="17" font-weight="700" fill="#5eead4">phantom_moat</text>
    <text x="372" y="290" font-size="15" fill="#64748b">evidence-blocked provisional — neither accepted nor discarded</text>

    <!-- ===== right: dual-track motif ===== -->
    <text x="900" y="120" font-size="13" font-weight="700" fill="#f59e0b" letter-spacing="1">TRACK P · policy-visible</text>
    <line x1="900" y1="140" x2="1216" y2="140" stroke="#f59e0b" stroke-width="3"/>
    <g fill="#f59e0b">
      <circle cx="930" cy="140" r="6"/><circle cx="1010" cy="140" r="6"/>
      <circle cx="1090" cy="140" r="6"/><circle cx="1170" cy="140" r="6"/>
    </g>
    <text x="1216" y="120" font-size="12" font-weight="700" fill="#f59e0b" text-anchor="end">SEEN</text>

    <text x="900" y="232" font-size="13" font-weight="700" fill="#64748b" letter-spacing="1">TRACK O · open-source brownfield</text>
    <line x1="900" y1="252" x2="1100" y2="252" stroke="#475569" stroke-width="3" stroke-dasharray="7 6"/>
    <line x1="1100" y1="252" x2="1216" y2="252" stroke="#475569" stroke-width="3" stroke-dasharray="7 6" opacity="0.35"/>
    <g fill="none" stroke="#475569" stroke-width="2">
      <circle cx="930" cy="252" r="6"/><circle cx="1010" cy="252" r="6"/>
      <circle cx="1090" cy="252" r="6" opacity="0.5"/><circle cx="1170" cy="252" r="6" opacity="0.25"/>
    </g>
    <ellipse cx="1120" cy="252" rx="116" ry="40" fill="none" stroke="#334155" stroke-width="1.5" stroke-dasharray="3 5"/>
    <text x="1216" y="232" font-size="12" font-weight="700" fill="#64748b" text-anchor="end">ILLEGIBLE</text>
    <text x="1120" y="306" font-size="11" fill="#475569" text-anchor="middle">structural blind spot</text>

    <!-- ===== footer strip ===== -->
    <text x="64" y="338" font-size="12" fill="#475569">7-AI review 7/7 revise · 6-AI collection 6/6 fabricated=0 · Python stdlib-only · MIT</text>
    <text x="1216" y="338" font-size="12" fill="#475569" text-anchor="end">research instrument — not investment advice</text>
  </g>
</svg>
